
<svg aria-hidden="true" style="position: absolute; width: 0; height: 0; overflow: hidden;" version="1.1" xmlns="http://www.w3.org/2000/svg" xmlns:xlink="http://www.w3.org/1999/xlink">
<defs>
<symbol id="icon-close" viewBox="0 0 32 32">
<path stroke-width="3.4286" stroke-miterlimit="4" stroke-linecap="round" stroke-linejoin="round" d="M24 8l-16 16M8 8l16 16"></path>
</symbol>
<symbol id="icon-vector" viewBox="0 0 30 32">
<path fill="#fff" style="fill: var(--color1, #fff)" d="M29.867 4.587l-4.425-4.42v22.123l-22.123-22.125-3.319 3.317 22.123 22.123h-22.123l4.425 4.427h25.442v-25.444z"></path>
</symbol>
<symbol id="icon-menu-mobile" viewBox="0 0 32 32">
<path d="M2.667 7.993c0-0.733 0.595-1.327 1.327-1.327h10.68c0.352 0 0.689 0.14 0.938 0.389s0.389 0.586 0.389 0.938c0 0.352-0.14 0.689-0.389 0.938s-0.586 0.389-0.938 0.389h-10.68c-0.352 0-0.689-0.14-0.938-0.389s-0.389-0.586-0.389-0.938zM2.667 16c0-0.733 0.595-1.327 1.327-1.327h24.013c0.352 0 0.689 0.14 0.938 0.389s0.389 0.586 0.389 0.938c0 0.352-0.14 0.689-0.389 0.938s-0.586 0.389-0.938 0.389h-24.013c-0.352 0-0.689-0.14-0.938-0.389s-0.389-0.586-0.389-0.938zM3.993 22.68c-0.352 0-0.689 0.14-0.938 0.389s-0.389 0.586-0.389 0.938c0 0.352 0.14 0.689 0.389 0.938s0.586 0.389 0.938 0.389h16.013c0.352 0 0.689-0.14 0.938-0.389s0.389-0.586 0.389-0.938c0-0.352-0.14-0.689-0.389-0.938s-0.586-0.389-0.938-0.389h-16.013z"></path>
</symbol>
<symbol id="icon-logo" viewBox="0 0 32 32">
<path d="M29.082 0.314h-4.009c-1.237 0-2.24 0.983-2.24 2.195v3.929c0 1.212 1.003 2.195 2.24 2.195h4.009c1.237 0 2.24-0.983 2.24-2.195v-3.929c0-1.212-1.003-2.195-2.24-2.195z"></path>
<path d="M6.73 23.040h-4.318c-1.332 0-2.412 0.983-2.412 2.195v3.929c0 1.213 1.080 2.195 2.412 2.195h4.318c1.332 0 2.412-0.983 2.412-2.195v-3.929c0-1.212-1.080-2.195-2.412-2.195z"></path>
<path d="M6.25 11.582h-4.009c-1.237 0-2.24 0.983-2.24 2.195v3.929c0 1.212 1.003 2.195 2.24 2.195h4.009c1.237 0 2.24-0.983 2.24-2.195v-3.929c0-1.212-1.003-2.195-2.24-2.195z"></path>
<path d="M17.766 22.978h-4.009c-1.237 0-2.24 0.983-2.24 2.195l-0 3.929c0 1.212 1.003 2.195 2.241 2.195h4.009c1.237 0 2.24-0.983 2.24-2.195v-3.929c0-1.212-1.003-2.195-2.24-2.195z"></path>
<path d="M6.25 0.086h-4.009c-1.237 0-2.24 0.983-2.24 2.195v3.929c0 1.212 1.003 2.195 2.24 2.195h4.009c1.237 0 2.24-0.983 2.24-2.195v-3.929c0-1.212-1.003-2.195-2.24-2.195z"></path>
<path d="M18.076 11.697h-4.009c-1.237 0-2.24 0.983-2.24 2.195v3.929c0 1.212 1.003 2.195 2.24 2.195h4.009c1.237 0 2.24-0.983 2.24-2.195v-3.929c0-1.212-1.003-2.195-2.24-2.195z"></path>
<path d="M29.333 22.978h-4.010c-1.237 0-2.24 0.983-2.24 2.195v3.929c0 1.212 1.003 2.195 2.24 2.195h4.009c1.237 0 2.24-0.983 2.24-2.195v-3.929c0-1.212-1.003-2.195-2.24-2.195z"></path>
<path d="M17.591 0.224h-4.009c-1.237 0-2.24 0.983-2.24 2.195v3.929c0 1.212 1.003 2.195 2.24 2.195h4.009c1.237 0 2.24-0.984 2.24-2.196v-3.929c0-1.212-1.003-2.195-2.24-2.195z"></path>
<path d="M29.044 11.926h-4.010c-1.237 0-2.24 0.983-2.24 2.195v3.929c0 1.212 1.003 2.195 2.24 2.195h4.009c1.237 0 2.24-0.983 2.24-2.195v-3.929c0-1.212-1.003-2.195-2.24-2.195z"></path>
</symbol>
<symbol id="icon-shop-cart" viewBox="0 0 32 32">
<path stroke-width="3.2" stroke-miterlimit="4" stroke-linecap="round" stroke-linejoin="round" d="M12 29.333c0.736 0 1.333-0.597 1.333-1.333s-0.597-1.333-1.333-1.333v0c-0.736 0-1.333 0.597-1.333 1.333s0.597 1.333 1.333 1.333v0zM26.667 29.333c0.736 0 1.333-0.597 1.333-1.333s-0.597-1.333-1.333-1.333v0c-0.736 0-1.333 0.597-1.333 1.333s0.597 1.333 1.333 1.333v0z"></path>
<path stroke-width="2.56" stroke-miterlimit="4" stroke-linecap="round" stroke-linejoin="round" d="M1.333 1.333h5.334l3.573 17.854c0.252 1.232 1.327 2.146 2.616 2.146 0.018 0 0.036-0 0.054-0.001l-0.003 0h12.96c0.015 0 0.032 0 0.050 0 1.289 0 2.364-0.914 2.613-2.129l0.003-0.017 2.134-11.187h-22.667"></path>
</symbol>
<symbol id="icon-add-cart" viewBox="0 0 32 32">
<path d="M20.061 10.162c0.235-0.331 0.616-0.545 1.048-0.545 0.707 0 1.28 0.573 1.28 1.28 0 0.261-0.078 0.504-0.213 0.707l0.003-0.005-6.942 10.24c-0.233 0.341-0.621 0.561-1.059 0.561s-0.826-0.221-1.056-0.557l-0.003-0.004-3.296-4.864c-0.155-0.209-0.247-0.472-0.247-0.756 0-0.707 0.573-1.28 1.28-1.28 0.455 0 0.854 0.237 1.081 0.594l0.003 0.005 2.24 3.301 5.882-8.677z"></path>
<path stroke-width="2.4" stroke-miterlimit="4" stroke-linecap="butt" stroke-linejoin="miter" d="M6.4 1.2h19.2c2.872 0 5.2 2.328 5.2 5.2v19.2c0 2.872-2.328 5.2-5.2 5.2h-19.2c-2.872 0-5.2-2.328-5.2-5.2v-19.2c0-2.872 2.328-5.2 5.2-5.2z"></path>
</symbol>
<symbol id="icon-facebook" viewBox="0 0 31 32">
<path d="M18.847 5.015h0.927v3.476h-1.159c-0.463 0-0.927 0-1.159 0.232s-0.232 0.463-0.232 1.004v1.236h2.549v2.935h-2.549v12.745h-3.939v-12.822h-2.086v-2.935h2.086v-1.004c0-1.699 0.232-2.935 0.695-3.476 0.695-1.004 2.086-1.468 4.171-1.468 0.232 0.077 0.463 0.077 0.695 0.077z"></path>
</symbol>
<symbol id="icon-instagram" viewBox="0 0 31 32">
<path d="M27.727 10.92c-0.015-1.095-0.225-2.136-0.596-3.098l0.021 0.061c-0.658-1.662-1.951-2.953-3.572-3.593l-0.043-0.015c-0.889-0.343-1.917-0.552-2.991-0.575l-0.010-0c-1.32-0.060-1.739-0.076-5.090-0.076-3.352 0-3.782 0-5.092 0.076-1.026 0.022-2.039 0.215-2.999 0.575-1.664 0.655-2.956 1.946-3.599 3.566l-0.015 0.043c-0.345 0.887-0.554 1.913-0.575 2.985l-0 0.009c-0.060 1.32-0.077 1.738-0.077 5.085 0 3.346 0 3.774 0.077 5.084 0.020 1.025 0.214 2.036 0.574 2.997 0.659 1.662 1.952 2.952 3.573 3.591l0.043 0.015c0.886 0.357 1.911 0.58 2.984 0.616l0.015 0c1.322 0.058 1.741 0.077 5.092 0.077 3.352 0 3.782 0 5.092-0.077 1.083-0.022 2.111-0.23 3.062-0.595l-0.062 0.021c1.663-0.656 2.955-1.947 3.599-3.566l0.015-0.043c0.361-0.96 0.555-1.971 0.575-2.997 0.060-1.319 0.077-1.736 0.077-5.084-0.002-3.347-0.002-3.772-0.079-5.082zM15.437 22.289c-0.002 0-0.004 0-0.007 0-3.499 0-6.336-2.835-6.338-6.334v-0c0.001-3.5 2.838-6.336 6.338-6.336 0.002 0 0.005 0 0.007 0h-0c3.503 0 6.345 2.836 6.345 6.335-0.003 3.499-2.841 6.335-6.34 6.335-0.002 0-0.003 0-0.005 0h0zM22.036 10.862c-0.816 0-1.478-0.662-1.478-1.478s0.662-1.478 1.478-1.478v0c0.816 0 1.478 0.662 1.478 1.478s-0.662 1.478-1.478 1.478v0z"></path>
<path d="M15.441 19.821c2.135 0 3.866-1.731 3.866-3.866s-1.731-3.866-3.866-3.866v0c-2.135 0-3.866 1.731-3.866 3.866s1.731 3.866 3.866 3.866v0z"></path>
</symbol>
<symbol id="icon-youtube" viewBox="0 0 31 32">
<path d="M23.404 6.327c-1.313-0.077-4.017-0.154-8.11-0.154h-0.541c-3.939 0-6.566 0.077-7.879 0.232-1.777 0.154-3.012 0.618-3.708 1.236-0.618 0.541-1.081 1.545-1.236 2.858-0.077 0.85-0.154 2.626-0.154 5.33v0.386c0 2.549 0.077 4.326 0.232 5.175 0.232 1.236 0.618 2.163 1.39 2.703 0.772 0.618 2.086 1.004 3.939 1.159 1.313 0.077 4.017 0.154 8.11 0.154h0.541c3.939 0 6.566-0.077 7.879-0.232 1.777-0.154 3.012-0.618 3.708-1.236 0.618-0.541 1.081-1.545 1.236-2.858 0.077-0.85 0.154-2.626 0.154-5.33v-0.386c0-2.549-0.077-4.326-0.232-5.175-0.232-1.236-0.618-2.163-1.39-2.703-0.772-0.618-2.086-1.004-3.939-1.159zM20.392 15.828l-8.497 5.098v-10.196l8.497 5.098z"></path>
</symbol>
<symbol id="icon-circle-up" viewBox="0 0 32 32">
<path d="M0 16c0 8.837 7.163 16 16 16s16-7.163 16-16-7.163-16-16-16-16 7.163-16 16zM29 16c0 7.18-5.82 13-13 13s-13-5.82-13-13 5.82-13 13-13 13 5.82 13 13z"></path>
<path d="M22.086 20.914l2.829-2.829-8.914-8.914-8.914 8.914 2.828 2.828 6.086-6.086z"></path>
</symbol>
  <symbol id="icon-checkbox" viewBox="0 0 32 32">
            <path
                d="M26.149 1.403c0.584-0.853 1.553-1.405 2.651-1.405 1.769 0 3.203 1.434 3.203 3.203 0 0.671-0.206 1.294-0.559 1.808l0.007-0.011-17.36 25.6c-0.584 0.852-1.551 1.403-2.648 1.403s-2.064-0.552-2.641-1.392l-0.007-0.011-8.245-12.16c-0.346-0.504-0.552-1.126-0.552-1.797 0-1.769 1.434-3.203 3.203-3.203 1.098 0 2.067 0.552 2.644 1.394l0.007 0.011 5.595 8.256 14.704-21.696z"></path>
        </symbol>
</defs>
</svg>
